<svg xmlns="http://www.w3.org/2000/svg" width="103" height="32" viewBox="0 0 103 32">
    <g fill="none" fill-rule="evenodd">
        <path fill="#1F30F9" d="M46.214 30.68a6.337 6.337 0 0 1-2.387-2.486c-.578-1.062-.867-2.265-.867-3.609 0-1.343.289-2.546.867-3.608a6.339 6.339 0 0 1 2.387-2.486c1.012-.595 2.154-.893 3.427-.893 1.11 0 2.111.218 3.002.653a5.888 5.888 0 0 1 2.221 1.88l-2.186 2.19c-.787-1.05-1.742-1.575-2.864-1.575-.659 0-1.246.16-1.76.48-.516.32-.915.771-1.198 1.353-.284.583-.425 1.252-.425 2.006 0 .756.141 1.424.425 2.006a3.195 3.195 0 0 0 1.197 1.354c.515.32 1.102.48 1.761.48 1.122 0 2.077-.525 2.864-1.574l2.186 2.188a5.881 5.881 0 0 1-2.22 1.881c-.892.435-1.892.653-3.003.653-1.273 0-2.415-.298-3.427-.893M69.26 30.538h3.816v-9.433H69.26v9.433zm-.42-12.542c0-.554.213-1.017.642-1.39.428-.374.99-.56 1.686-.56s1.258.176 1.687.53c.428.355.642.808.642 1.362 0 .58-.214 1.06-.642 1.439-.429.38-.99.57-1.687.57-.696 0-1.258-.187-1.686-.56-.429-.374-.643-.837-.643-1.391zM20.409 24.556h-.455c-.206 0-.405-.005-.6-.02-.874-.064-1.554-.848-1.554-1.8 0-.829.236-1.473.63-1.933.394-.459.956-.554 1.662-.554h5.27a4.203 4.203 0 0 0-1.134-1.752c-1-.925-2.393-1.417-4.18-1.417-1.835 0-3.201.478-4.154 1.46-.953.983-1.402 2.385-1.402 4.235v7.763H17.8V26.91c1.103.357 1.88.536 2.738.536 1.635 0 2.921-.504 3.82-1.403.406-.405.734-.77.956-1.487H20.41zM80.966 24.556h-.455c-.205 0-.404-.005-.599-.02-.874-.064-1.554-.848-1.554-1.8 0-.829.236-1.473.63-1.933.393-.459.956-.554 1.661-.554h5.271a4.203 4.203 0 0 0-1.134-1.752c-1-.925-2.393-1.417-4.18-1.417-1.835 0-3.202.478-4.154 1.46-.953.983-1.402 2.385-1.402 4.235v7.763h3.308V26.91c1.102.357 1.88.536 2.738.536 1.634 0 2.921-.504 3.82-1.403.405-.405.733-.77.956-1.487h-4.906zM33.995 28.423c-.698-.037-1.113-.194-1.576-.471-.534-.32-.98-.77-1.29-1.354-.31-.582-.477-1.25-.477-2.006 0-.755.15-1.423.46-2.006.31-.582.73-1.033 1.263-1.353a3.409 3.409 0 0 1 1.787-.48c.658 0 1.254.16 1.788.48.534.32.955.771 1.266 1.353.31.583.466 1.198.466 1.953 0 .271-.021.486-.061.726h3.745c.025-.24.041-.46.041-.726 0-1.331-.314-2.5-.94-3.563-.628-1.062-1.49-1.88-2.59-2.482-1.099-.602-2.338-.896-3.716-.896-1.379 0-2.617.304-3.717.906A6.67 6.67 0 0 0 27.855 21c-.627 1.062-.94 2.26-.94 3.59 0 1.332.313 2.529.94 3.59.627 1.063 1.537 1.895 2.636 2.497 1.03.563 2.107.86 3.504.895v-3.15zM64.487 17.519a11.399 11.399 0 0 0-3.156-.439c-1.084 0-2.136.146-3.156.439a9.977 9.977 0 0 0-2.793 1.277l1.138 2.746c.991-.623 2.011-1.036 3.092-1.24v5.577h3.459v-5.577c1.08.204 2.067.617 3.081 1.24l1.134-2.746c-.841-.559-1.78-.985-2.8-1.277"/>
        <path fill="#E5463E" d="M95.36 10.39a.528.528 0 0 0-.124.358c0 .184.063.315.19.457.127.143.309.182.546.182h6.897c.085-.466.131-1.072.131-1.643 0-.867-.103-1.693-.295-2.498l-6.97 2.992a.473.473 0 0 0-.374.152"/>
        <path fill="#E5463E" d="M94.695 15.098c-.946 0-1.72-.397-2.323-1.164-.562-.717-.844-1.585-.844-2.592 0-.89.228-1.693.685-2.402.505-.783 1.235-1.341 2.188-1.671l6.712-2.721c.01 0 .017.033.026.033-.281-.436-.594-.97-.937-1.2h-8.326V0c-5.219.481-9.062 4.802-9.062 10.063 0 5.583 4.46 10.123 9.972 10.123 3.714 0 6.942-2.101 8.661-5.088h-6.752z"/>
        <path fill="#1F30F9" d="M0 18.116v8.087h3.594v-5.084H8.31v9.936h3.594v-12.94z"/>
    </g>
</svg>
