<svg xmlns="http://www.w3.org/2000/svg" width="1440" height="652" viewBox="0 0 1440 652">
    <defs>
        <linearGradient id="a" x1="100%" x2="0%" y1="49.528%" y2="50.472%">
            <stop offset="0%" stop-color="#FFF5E7"/>
            <stop offset="100%" stop-color="#FFE7CA"/>
        </linearGradient>
        <linearGradient id="b" x1="100%" x2="0%" y1="48.545%" y2="51.455%">
            <stop offset="0%" stop-color="#8EE5DA"/>
            <stop offset="100%" stop-color="#56C7B3"/>
        </linearGradient>
        <linearGradient id="c" x1="100%" x2="0%" y1="46.862%" y2="53.138%">
            <stop offset="0%" stop-color="#F9F7FF"/>
            <stop offset="100%" stop-color="#F1EBFF"/>
        </linearGradient>
        <linearGradient id="d" x1="100%" x2="0%" y1="49.733%" y2="50.267%">
            <stop offset="0%" stop-color="#F4F7F9"/>
            <stop offset="100%" stop-color="#E6EBF1"/>
        </linearGradient>
    </defs>
    <g fill="none" fill-rule="evenodd">
        <path fill="url(#a)" d="M20.173 239.38h649.453l-19.546 65H.626z" transform="rotate(-12 1091.89 653.453)"/>
        <path fill="url(#b)" d="M129.851 128.666h361.466l-19.534 65H110.317z" transform="rotate(-12 1091.89 653.453)"/>
        <path fill="url(#c)" d="M1204.495 64.268l239.93-3.71-19.534 61.291-239.93 3.71z" transform="rotate(-12 1091.89 653.453)"/>
        <path fill="#E6EBF1" d="M25.781 521.78l850.45-180.77-5.61 67.645-850.45 180.769z"/>
        <path stroke="#CDD5DD" d="M949.781 477.769L1800.231 297l-5.61 67.644-850.45 180.77z"/>
        <path fill="#B0EEE3" d="M1139.502 223.25l635.261-135.029-5.605 67.644-635.261 135.029z"/>
        <path fill="url(#d)" d="M1392.445 306.69h869.45l-19.551 65h-869.45z" transform="rotate(-12 1091.89 653.453)"/>
        <path stroke="#CDD5DD" d="M144.98 563.224l320.92-68.213-8.857 87.759-320.92 68.214zM-57.02 230.432L263.9 162.22l-12.807 69.174-320.921 68.214z"/>
    </g>
</svg>
