<svg xmlns="http://www.w3.org/2000/svg" width="78" height="68" viewBox="0 0 78 68">
    <g fill="none" fill-rule="evenodd">
        <path fill="#FFF101" d="M9 23h7V13H9z"/>
        <path fill="#4D4E4C" d="M1.327.735l6.517 11.842v7.688h6.282v-7.688L20.673.735h-6.547L11 7.716 7.844.735H1.327zM6.99 12.747L0 0h8.434L11 5.681 13.536 0H22l-7.019 12.747V21H6.99v-8.253zM7.883 48.265h6.234v-14.64h3.805l1.054-4.89H4.078l-1.053 4.89h4.858v14.64zm7.083.735H7.034V34.36H2L3.376 28H20l-1.376 6.36h-3.658V49z"/>
        <path fill="#3EAB47" d="M4.936 27L4 31h1.089L6 27H4.936"/>
        <path fill="#3EAB47" d="M5.936 27L5 31h1.089L7 27H5.936M7.936 27L7 31h1.089L9 27H7.936M9.936 27L9 31h1.089L11 27H9.936"/>
        <path fill="#3EAB47" d="M10.936 27L10 31h1.089L12 27h-1.064M12.936 27L12 31h1.089L14 27h-1.064"/>
        <path fill="#3EAB47" d="M13.936 27L13 31h1.089L15 27h-1.064M15.936 27L15 31h1.089L17 27h-1.064M17.936 27L17 31h1.089L19 27h-1.064"/>
        <path fill="#D2DB2F" d="M57 0h18v12.882c0 3.068-.729 5.355-2.185 6.86C71.358 21.247 69.086 22 66 22c-3.087 0-5.358-.753-6.815-2.258C57.728 18.237 57 15.95 57 12.882V0"/>
        <path fill="#4D4E4C" d="M61.93.753h-6.096v12.129c0 2.933.637 5.06 1.912 6.383 1.275 1.322 3.36 1.982 6.254 1.982 2.914 0 5.003-.66 6.268-1.982 1.265-1.322 1.898-3.45 1.898-6.383V.752H66.07v11.753c0 1.255-.139 2.109-.417 2.562-.278.454-.834.68-1.667.68-.815 0-1.362-.226-1.64-.68-.277-.453-.416-1.307-.416-2.562V.753zM55 0h7.763v12.505c0 .58.01 1.038.029 1.375.019.338.07.59.156.753a.552.552 0 0 0 .37.304c.16.039.383.058.668.058.283 0 .506-.02.668-.058a.597.597 0 0 0 .383-.304c.095-.164.152-.415.17-.753.02-.337.03-.796.03-1.375V0H73v12.882c0 3.068-.729 5.355-2.185 6.86C69.358 21.247 67.086 22 64 22c-3.087 0-5.358-.753-6.815-2.258C55.728 18.237 55 15.95 55 12.882V0z"/>
        <path fill="#EAB829" d="M76.887 33.63c-.72-1.607-1.682-2.973-2.887-4.1a12.956 12.956 0 0 0-4.145-2.61A13.147 13.147 0 0 0 65 26v6.158c.595.07 1.176.215 1.741.437.827.326 1.56.787 2.198 1.384a6.678 6.678 0 0 1 1.53 2.173c.383.852.58 1.798.59 2.84 0 1.052-.19 2.004-.572 2.855a6.672 6.672 0 0 1-1.531 2.174 6.834 6.834 0 0 1-2.206 1.384 7.052 7.052 0 0 1-1.75.437V52a13.27 13.27 0 0 0 4.871-.92 12.893 12.893 0 0 0 4.161-2.61c1.205-1.126 2.167-2.493 2.887-4.1C77.64 42.765 78 40.97 78 38.984c-.021-1.963-.392-3.748-1.113-5.354"/>
        <path fill="#4D4E4C" d="M69.703 41.57a6.026 6.026 0 0 1-1.38 1.96 6.164 6.164 0 0 1-1.988 1.249c-.75.293-1.531.44-2.343.44a6.336 6.336 0 0 1-2.327-.44 6.157 6.157 0 0 1-1.988-1.249 6.018 6.018 0 0 1-1.38-1.96c-.344-.77-.516-1.628-.516-2.578.01-.939.187-1.793.532-2.561a6.024 6.024 0 0 1 3.36-3.21 6.274 6.274 0 0 1 2.32-.44c.81 0 1.592.147 2.342.44.75.294 1.413.71 1.988 1.249a6.03 6.03 0 0 1 1.38 1.96c.344.77.516 1.623.516 2.562 0 .95-.172 1.809-.516 2.577zm-.837-7.67a6.952 6.952 0 0 0-2.238-1.404A7.177 7.177 0 0 0 63.991 32c-.902 0-1.772.165-2.61.496-.84.33-1.582.799-2.23 1.405a6.781 6.781 0 0 0-1.553 2.207c-.387.865-.587 1.826-.598 2.883 0 1.07.194 2.036.581 2.9.388.866.905 1.602 1.553 2.208a6.931 6.931 0 0 0 2.238 1.405 7.13 7.13 0 0 0 2.62.496c.913 0 1.792-.165 2.636-.496a6.94 6.94 0 0 0 2.238-1.405 6.786 6.786 0 0 0 1.553-2.207c.387-.865.581-1.832.581-2.901 0-1.057-.194-2.018-.581-2.883a6.79 6.79 0 0 0-1.553-2.207z"/>
        <path fill="#4D4E4C" d="M74.263 43.275a9.703 9.703 0 0 1-2.43 3.242 10.858 10.858 0 0 1-3.519 2.039 12.426 12.426 0 0 1-4.197.708c-1.453 0-2.846-.236-4.182-.708a10.652 10.652 0 0 1-3.52-2.039 9.801 9.801 0 0 1-2.414-3.242c-.6-1.274-.898-2.704-.898-4.29.019-1.585.328-3.01.927-4.275a9.849 9.849 0 0 1 2.415-3.227 10.698 10.698 0 0 1 3.505-2.039 12.335 12.335 0 0 1 4.167-.708c1.473 0 2.872.236 4.197.708a10.87 10.87 0 0 1 3.52 2.039 9.748 9.748 0 0 1 2.43 3.227c.598 1.265.898 2.69.898 4.276 0 1.585-.3 3.015-.899 4.29zm.752-8.82a10.711 10.711 0 0 0-2.633-3.468 11.952 11.952 0 0 0-3.794-2.208 13.016 13.016 0 0 0-4.47-.779c-1.53 0-3.006.26-4.427.779a11.977 11.977 0 0 0-3.78 2.208 10.699 10.699 0 0 0-2.632 3.469 9.958 9.958 0 0 0-.81 2.457H46v5.25h6.712c.144.477.323.938.538 1.381a10.695 10.695 0 0 0 2.632 3.469 11.923 11.923 0 0 0 3.794 2.208c1.431.52 2.912.779 4.441.779 1.55 0 3.04-.26 4.471-.779a11.934 11.934 0 0 0 3.794-2.208 10.707 10.707 0 0 0 2.633-3.469c.656-1.359.985-2.878.985-4.558 0-1.661-.329-3.171-.985-4.53zM41.703 14.57a6.028 6.028 0 0 1-1.38 1.96 6.166 6.166 0 0 1-1.988 1.249c-.75.293-1.531.44-2.343.44a6.333 6.333 0 0 1-2.327-.44 6.16 6.16 0 0 1-1.988-1.249 6.021 6.021 0 0 1-1.38-1.96c-.344-.77-.516-1.628-.516-2.578.01-.939.187-1.793.532-2.561a6.025 6.025 0 0 1 3.36-3.21 6.273 6.273 0 0 1 2.32-.44c.811 0 1.592.147 2.342.44.75.294 1.413.71 1.988 1.249a6.031 6.031 0 0 1 1.38 1.96c.344.77.516 1.623.516 2.562 0 .95-.172 1.809-.516 2.577zm-.837-7.67a6.95 6.95 0 0 0-2.238-1.404A7.175 7.175 0 0 0 35.991 5a7.06 7.06 0 0 0-2.61.496A6.967 6.967 0 0 0 31.15 6.9a6.781 6.781 0 0 0-1.553 2.207c-.387.865-.587 1.826-.598 2.883 0 1.07.193 2.036.581 2.901.388.865.905 1.6 1.553 2.207a6.933 6.933 0 0 0 2.238 1.405c.844.33 1.717.496 2.62.496.913 0 1.792-.165 2.636-.496a6.939 6.939 0 0 0 2.238-1.405 6.784 6.784 0 0 0 1.553-2.207c.387-.865.581-1.832.581-2.901 0-1.057-.194-2.018-.581-2.883a6.788 6.788 0 0 0-1.553-2.207z"/>
        <path fill="#4D4E4C" d="M46.317 15.81c-.58 1.32-1.365 2.438-2.354 3.356a10.384 10.384 0 0 1-3.41 2.11c-1.285.488-2.64.733-4.067.733-1.408 0-2.759-.245-4.053-.733a10.19 10.19 0 0 1-3.41-2.11c-.98-.918-1.76-2.037-2.34-3.355-.58-1.32-.87-2.8-.87-4.44.018-1.641.318-3.116.898-4.426.58-1.308 1.36-2.422 2.34-3.34a10.238 10.238 0 0 1 3.397-2.11 11.268 11.268 0 0 1 4.038-.733c1.427 0 2.782.244 4.066.733a10.4 10.4 0 0 1 3.41 2.11c.99.918 1.775 2.032 2.355 3.34.58 1.31.87 2.785.87 4.426 0 1.64-.29 3.12-.87 4.44zm.728-9.128c-.637-1.407-1.487-2.603-2.55-3.59A11.434 11.434 0 0 0 40.818.806 11.893 11.893 0 0 0 36.486 0c-1.482 0-2.912.269-4.29.806a11.46 11.46 0 0 0-3.662 2.286c-1.064.987-1.914 2.183-2.55 3.59-.638 1.406-.965 2.97-.984 4.689 0 1.739.318 3.311.955 4.718.636 1.407 1.486 2.604 2.55 3.59a11.407 11.407 0 0 0 3.677 2.286c.557.216 1.122.386 1.694.515V29h5.284v-6.529a11.945 11.945 0 0 0 1.658-.506 11.417 11.417 0 0 0 3.677-2.286c1.063-.986 1.913-2.183 2.55-3.59.637-1.407.955-2.98.955-4.718 0-1.72-.318-3.283-.955-4.69z"/>
        <path fill="#D8127D" d="M40 9.99L39.984 9l-1.476 1.01L37 9.035l.017.991 1.508.973L40 9.99M43 9.99L42.983 9l-1.475 1.01-.754-.487L40 9.036l.016.991 1.509.973L43 9.99M46 9.99L45.983 9l-1.475 1.01L43 9.035l.016.991 1.509.973L46 9.99"/>
        <path fill="#D8127D" d="M48 9.99L47.983 9l-1.475 1.01L45 9.035l.016.991 1.509.973L48 9.99M51 9.99L50.983 9l-1.475 1.01L48 9.035l.016.991 1.509.973L51 9.99M40 11.99l-.016-.99-1.476 1.01L37 11.035l.016.991 1.509.973L40 11.99M43 11.99l-.017-.99-1.475 1.01L40 11.035l.016.991 1.509.973L43 11.99M46 11.99l-.017-.99-1.475 1.01L43 11.035l.016.991.755.487.754.486L46 11.99"/>
        <path fill="#D8127D" d="M48 11.99l-.017-.99-1.475 1.01L45 11.035l.016.991.755.487.754.486L48 11.99M51 11.99l-.017-.99-1.475 1.01L48 11.035l.016.991 1.509.973.737-.505.738-.504M40 13.99l-.017-.99-1.475 1.01L37 13.035l.016.991 1.509.973L40 13.99M43 13.99l-.017-.99-1.475 1.01L40 13.035l.016.991 1.509.973L43 13.99M46 13.99l-.017-.99-1.475 1.01L43 13.035l.016.991.755.487.754.486L46 13.99"/>
        <path fill="#D8127D" d="M48 13.99l-.017-.99-1.475 1.01L45 13.035l.016.991 1.509.973L48 13.99M51 13.99l-.016-.99-1.476 1.01L48 13.035l.017.991 1.508.973L51 13.99"/>
        <path fill="#009D90" d="M36.486 28c1.5 0 2.945.26 4.332.779a11.503 11.503 0 0 1 3.676 2.208c1.064.953 1.914 2.11 2.551 3.469.637 1.359.955 2.869.955 4.53 0 1.68-.318 3.2-.955 4.558-.637 1.36-1.487 2.516-2.55 3.469a11.484 11.484 0 0 1-3.677 2.208 12.262 12.262 0 0 1-4.332.779c-1.482 0-2.917-.26-4.304-.779a11.474 11.474 0 0 1-3.676-2.208c-1.065-.953-1.915-2.11-2.551-3.469-.637-1.358-.955-2.878-.955-4.558.019-1.661.346-3.171.983-4.53.637-1.36 1.487-2.516 2.551-3.469a11.528 11.528 0 0 1 3.662-2.208 12.068 12.068 0 0 1 4.29-.779"/>
        <path fill="#4D4E4C" d="M12 61.625H9.828V68h-.653v-6.372H7V61h5v.625M19.3 67.909h.7V61h-.7v6.909zm-3.59-.528c.88 0 1.583-.545 1.583-1.322 0-.776-.66-1.328-1.583-1.328h-2.017v2.65h2.017zm.016-3.269c1.384 0 2.27.807 2.27 1.944 0 1.158-.916 1.951-2.279 1.944H13v-7h.69v3.112h2.036zM33 61v7h-.648v-6.112L29.5 65.42l-2.852-3.535V68H26v-7h.729l2.77 3.48L32.272 61H33M38.5 61.613a2.87 2.87 0 0 0-2.873 2.887 2.869 2.869 0 0 0 2.873 2.887 2.874 2.874 0 0 0 2.878-2.887 2.874 2.874 0 0 0-2.878-2.887zM42 64.5c0 1.944-1.574 3.5-3.5 3.5a3.498 3.498 0 0 1-3.5-3.5c0-1.943 1.574-3.5 3.5-3.5s3.5 1.557 3.5 3.5zM52 67.998h-.748l-2.398-3.81-1.04 1.205V68h-.632v-2.607l-1.037-1.205-2.397 3.81H43l2.72-4.308L43.404 61h.753l3.025 3.526v-3.525h.632v3.525L50.843 61h.753l-2.316 2.69L52 67.998M57.964 61v.602H54.61v2.461h3.316v.602h-3.316v2.733H58V68h-4v-7h3.964M69 61v7h-9v-7h.636v6.375h3.546V61h.636v6.375h3.546V61H69M73.712 67.381c.882 0 1.584-.545 1.584-1.322 0-.776-.66-1.328-1.584-1.328h-2.018v2.65h2.018zm.016-3.269c1.385 0 2.272.807 2.272 1.944 0 1.158-.916 1.951-2.28 1.944H71v-7h.69v3.112h2.038z"/>
    </g>
</svg>
